Coordinates
version=1
nRows=17
nColumns=40
inDegrees=yes

Units are S.I. units (second, meters, Newtons, ...)
If the header above contains a line with 'inDegrees', this indicates whether rotational values are in degrees (yes) or radians (no).

endheader
time	pelvis_tilt	pelvis_list	pelvis_rotation	pelvis_tx	pelvis_ty	pelvis_tz	hip_flexion_r	hip_adduction_r	hip_rotation_r	knee_angle_r	knee_angle_r_beta	ankle_angle_r	subtalar_angle_r	mtp_angle_r	hip_flexion_l	hip_adduction_l	hip_rotation_l	knee_angle_l	knee_angle_l_beta	ankle_angle_l	subtalar_angle_l	mtp_angle_l	lumbar_extension	lumbar_bending	lumbar_rotation	arm_flex_r	arm_add_r	arm_rot_r	elbow_flex_r	pro_sup_r	wrist_flex_r	wrist_dev_r	arm_flex_l	arm_add_l	arm_rot_l	elbow_flex_l	pro_sup_l	wrist_flex_l	wrist_dev_l
      2.45000000	      1.14883235	     -0.14621852	      3.37088966	     -0.25594119	      1.05576137	     -1.15657483	     -1.41449241	     -0.98439703	     -0.15151649	     72.96347098	      1.27345280	    -10.63740730	      0.00000000	      0.00000000	      6.00119183	      3.65815251	     -0.15188027	     17.64954662	      0.30804270	     -2.74651871	      0.00000000	      0.00000000	    -15.16807353	     -4.66949841	     -1.46625877	     78.97725136	     -0.87177353	     34.36286279	     36.42651386	     86.72572469	      0.00000000	      0.00000000	     86.76331350	    -11.53828701	     54.97923005	     36.47299682	     86.35604719	      0.00000000	      0.00000000
      2.45500000	      1.25252541	     -0.14588718	      3.42325223	     -0.25572018	      1.05564554	     -1.15659197	     -1.58861045	     -1.00143749	     -0.22602027	     72.87040749	      1.27182854	    -10.60984544	      0.00000000	      0.00000000	      5.88441418	      3.66306073	     -0.09912187	     17.67857439	      0.30854933	     -2.65420130	      0.00000000	      0.00000000	    -15.26781250	     -4.66803550	     -1.49824180	     79.00758114	     -0.81893307	     34.22264907	     36.37720313	     86.69501645	      0.00000000	      0.00000000	     86.83889204	    -11.47577792	     55.07802693	     36.47969046	     86.33801043	      0.00000000	      0.00000000
      2.46000000	      1.22057940	     -0.16803235	      3.40928225	     -0.25605075	      1.05548813	     -1.15658434	     -1.51958961	     -0.97292429	     -0.17426150	     72.85703219	      1.27159509	    -10.60037996	      0.00000000	      0.00000000	      6.00252748	      3.65003027	     -0.13829052	     17.81121371	      0.31086432	     -2.58725449	      0.00000000	      0.00000000	    -15.28989382	     -4.64417629	     -1.46949242	     79.11804283	     -0.81905672	     34.28516427	     36.30628898	     86.71126065	      0.00000000	      0.00000000	     86.95057893	    -11.44483266	     55.14659763	     36.51334572	     86.24468272	      0.00000000	      0.00000000
      2.46500000	      1.06177136	     -0.24110461	      3.41430414	     -0.25685441	      1.05539228	     -1.15661555	     -1.25321544	     -0.89984123	     -0.12796583	     72.89375469	      1.27223602	    -10.69026651	      0.00000000	      0.00000000	      6.29365726	      3.59761349	     -0.04146046	     17.92012315	      0.31276515	     -2.71184588	      0.00000000	      0.00000000	    -15.22315531	     -4.56707256	     -1.44862720	     79.19393918	     -0.77494629	     34.04044600	     36.24416408	     86.76835157	      0.00000000	      0.00000000	     87.03643532	    -11.35333045	     55.02374745	     36.48551750	     86.24453781	      0.00000000	      0.00000000
      2.47000000	      1.01616313	     -0.26156438	      3.40934348	     -0.25718173	      1.05527292	     -1.15660063	     -1.17537920	     -0.88646689	     -0.09871739	     72.90449101	      1.27242341	    -10.66671956	      0.00000000	      0.00000000	      6.39971106	      3.59020966	      0.03650963	     18.00054559	      0.31416879	     -2.57829752	      0.00000000	      0.00000000	    -15.22965111	     -4.55673149	     -1.43328752	     79.23625986	     -0.74881774	     33.87861346	     36.26448081	     86.75743362	      0.00000000	      0.00000000	     87.15643963	    -11.28313257	     55.08245537	     36.38513282	     86.28910485	      0.00000000	      0.00000000
      2.47500000	      0.97204438	     -0.26831324	      3.29935156	     -0.25764739	      1.05515235	     -1.15641991	     -1.07109310	     -0.88583480	      0.04240318	     72.92052849	      1.27270331	    -10.59553384	      0.00000000	      0.00000000	      6.51558976	      3.57731203	     -0.01550179	     18.07765196	      0.31551455	     -2.60606037	      0.00000000	      0.00000000	    -15.25537532	     -4.58194562	     -1.29257713	     79.33640865	     -0.77039996	     33.84395022	     36.20685992	     86.81015152	      0.00000000	      0.00000000	     87.28594508	    -11.18470261	     55.12463184	     36.34688481	     86.19854034	      0.00000000	      0.00000000
      2.48000000	      0.91808778	     -0.29551216	      3.27110892	     -0.25794395	      1.05499498	     -1.15637888	     -0.99085041	     -0.85392177	      0.12569459	     72.91924516	      1.27268092	    -10.60892981	      0.00000000	      0.00000000	      6.64062053	      3.54955627	     -0.06504143	     18.16829068	      0.31709649	     -2.56271083	      0.00000000	      0.00000000	    -15.24428943	     -4.57110635	     -1.26777943	     79.35990295	     -0.73850943	     33.70796071	     36.24206765	     86.77391957	      0.00000000	      0.00000000	     87.40382959	    -11.14206829	     55.28698330	     36.30729935	     86.11240858	      0.00000000	      0.00000000
      2.48500000	      0.85339876	     -0.27468745	      3.23543379	     -0.25833526	      1.05480950	     -1.15630655	     -0.87577952	     -0.91341269	      0.15716096	     72.96813596	      1.27353422	    -10.60485677	      0.00000000	      0.00000000	      6.76706532	      3.57263511	     -0.03522809	     18.24244144	      0.31839067	     -2.49963077	      0.00000000	      0.00000000	    -15.23763853	     -4.60559846	     -1.21817643	     79.42036473	     -0.75460286	     33.64321591	     36.24222324	     86.79123662	      0.00000000	      0.00000000	     87.48177885	    -11.04989293	     55.14954611	     36.26783606	     86.19336443	      0.00000000	      0.00000000
      2.49000000	      0.80161751	     -0.31633893	      3.24726529	     -0.25871971	      1.05467569	     -1.15627824	     -0.80204436	     -0.87201170	      0.17519075	     72.95811840	      1.27335938	    -10.66167170	      0.00000000	      0.00000000	      6.90489511	      3.53151451	      0.04428975	     18.36039771	      0.32044939	     -2.48774148	      0.00000000	      0.00000000	    -15.25615488	     -4.56662517	     -1.17276302	     79.45858020	     -0.76805713	     33.47254432	     36.26343713	     86.75374000	      0.00000000	      0.00000000	     87.59548421	    -10.96914538	     55.26557043	     36.28070478	     86.25749351	      0.00000000	      0.00000000
      2.49500000	      0.69903962	     -0.34812225	      3.18877577	     -0.25916198	      1.05452891	     -1.15617879	     -0.64946350	     -0.84476745	      0.26373143	     72.97621390	      1.27367521	    -10.67617024	      0.00000000	      0.00000000	      7.09876875	      3.48183725	     -0.08551791	     18.44546005	      0.32193401	     -2.57167717	      0.00000000	      0.00000000	    -15.21108741	     -4.56756504	     -1.08284746	     79.55803466	     -0.80192845	     33.47949198	     36.23441853	     86.68163918	      0.00000000	      0.00000000	     87.69743090	    -10.87650553	     55.33386138	     36.24728934	     86.25131036	      0.00000000	      0.00000000
      2.50000000	      0.77634566	     -0.30601888	      3.19585085	     -0.25907327	      1.05431544	     -1.15612079	     -0.79346876	     -0.90603735	      0.24802375	     72.92450405	      1.27277270	    -10.63265184	      0.00000000	      0.00000000	      7.03201087	      3.52261609	     -0.01861364	     18.52552448	      0.32333140	     -2.36203039	      0.00000000	      0.00000000	    -15.31956309	     -4.61469336	     -1.10017958	     79.61912137	     -0.77417981	     33.43306533	     36.18047314	     86.68497596	      0.00000000	      0.00000000	     87.76654286	    -10.79572349	     55.06322486	     36.17506304	     86.37850508	      0.00000000	      0.00000000
      2.50500000	      0.68045413	     -0.32963110	      3.13911703	     -0.25956985	      1.05411401	     -1.15601196	     -0.65752918	     -0.88780147	      0.32557313	     72.94228143	      1.27308297	    -10.61511617	      0.00000000	      0.00000000	      7.22578450	      3.48748727	     -0.08570949	     18.64759138	      0.32546187	     -2.34976716	      0.00000000	      0.00000000	    -15.28432054	     -4.60968040	     -1.03335298	     79.70078185	     -0.70870288	     33.19822805	     36.07013473	     86.66960363	      0.00000000	      0.00000000	     87.87411171	    -10.75110626	     55.15024050	     36.17420446	     86.35762574	      0.00000000	      0.00000000
      2.51000000	      0.47830215	     -0.38966488	      3.00903124	     -0.26053739	      1.05397710	     -1.15580995	     -0.31343946	     -0.81300838	      0.52510657	     73.04631437	      1.27489869	    -10.72692621	      0.00000000	      0.00000000	      7.61028924	      3.40936315	     -0.21793845	     18.84324840	      0.32887673	     -2.40666771	      0.00000000	      0.00000000	    -15.19032598	     -4.59505052	     -0.90310239	     79.79742950	     -0.70613442	     33.04878874	     36.04430467	     86.59974745	      0.00000000	      0.00000000	     88.02605537	    -10.70426304	     55.28794136	     36.17155756	     86.24101560	      0.00000000	      0.00000000
      2.51500000	      0.41778617	     -0.40027269	      3.02612500	     -0.26097206	      1.05379759	     -1.15584057	     -0.24276163	     -0.81527353	      0.54317149	     73.05339666	      1.27502230	    -10.64312854	      0.00000000	      0.00000000	      7.76222081	      3.40403432	     -0.13443634	     18.95865295	      0.33089092	     -2.35072933	      0.00000000	      0.00000000	    -15.19488941	     -4.57832914	     -0.93384359	     79.87359225	     -0.62646479	     32.93892167	     35.98236801	     86.62730603	      0.00000000	      0.00000000	     88.08836865	    -10.61048195	     54.95976544	     36.09664262	     86.37064330	      0.00000000	      0.00000000
      2.52000000	      0.34089409	     -0.42787662	      2.95713362	     -0.26144152	      1.05359684	     -1.15569648	     -0.13045989	     -0.78188079	      0.66935186	     73.08054681	      1.27549616	    -10.69984653	      0.00000000	      0.00000000	      7.97610963	      3.35476238	     -0.27020275	     19.17447102	      0.33465765	     -2.31179147	      0.00000000	      0.00000000	    -15.18966368	     -4.56846575	     -0.86672696	     79.98605039	     -0.57112719	     32.83080574	     35.89363099	     86.56362207	      0.00000000	      0.00000000	     88.21991194	    -10.60681603	     55.11210124	     36.10472529	     86.35595035	      0.00000000	      0.00000000
      2.52500000	      0.29137285	     -0.46674338	      2.95991148	     -0.26183496	      1.05339585	     -1.15568214	     -0.08196971	     -0.76157960	      0.67348445	     73.04752824	      1.27491988	    -10.74056066	      0.00000000	      0.00000000	      8.13432857	      3.31202619	     -0.25547823	     19.34125281	      0.33756854	     -2.19925885	      0.00000000	      0.00000000	    -15.21309842	     -4.53508322	     -0.85155803	     80.07906598	     -0.61115830	     32.83290975	     35.89376932	     86.49924647	      0.00000000	      0.00000000	     88.33854003	    -10.56684917	     55.13848480	     36.13492150	     86.35835500	      0.00000000	      0.00000000
      2.53000000	      0.18812302	     -0.49352816	      2.92307789	     -0.26231289	      1.05315070	     -1.15561255	      0.03312905	     -0.74591469	      0.73696193	     73.05444457	      1.27504059	    -10.64046668	      0.00000000	      0.00000000	      8.34878161	      3.28370882	     -0.23144081	     19.47910544	      0.33997453	     -2.22051924	      0.00000000	      0.00000000	    -15.18219266	     -4.52075216	     -0.77137506	     80.17601676	     -0.65579379	     32.88222290	     35.87897168	     86.52362511	      0.00000000	      0.00000000	     88.42220306	    -10.43568765	     54.96587653	     36.04340226	     86.38319549	      0.00000000	      0.00000000
